<svg t="1648906014271" class="icon" viewBox="0 0 1024 1024" version="1.1" xmlns="http://www.w3.org/2000/svg" p-id="1193" width="200" height="200"><path d="M796.9 337.5c-10.1-58.4-51.4-91.9-114.5-68.5-67.8 25.7-98.1 123.8-123.8 232.1C543.8 565 522 798.6 517.3 836c-4.7 37.4-46.7-10.9-53.7-86.4-7.8-95 14-242.2-35-412-34.3-117.6-165.9-123-196.3-3.9-9.3 35 6.2 91.1 26.5 136.3 12.5 28.8-78.7 4.7-87.2-120.7-8.6-124.8 117.6-205.8 223.5-160.6 3.1 1.6 5.5 2.3 8.6 3.9 74 36.6 161.2 39.7 234.4 1.6 30.4-15.6 63.1-22.6 95.8-17.1 148 28 146.4 250.8 58.4 287.4-37.4 15.5 20.2-38.3 4.6-127z" fill="" p-id="1194"></path></svg>
