<svg t="1648950465522" class="icon" viewBox="0 0 1024 1024" version="1.1" xmlns="http://www.w3.org/2000/svg" p-id="7391" width="200" height="200"><path d="M698.832213 432.82944c-12.987733-2.648747-21.369173-15.327573-18.720426-28.315307 2.648747-12.987733 15.327573-21.369173 28.315306-18.720426l121.30816 24.753493c13.55264 2.763093 26.91072 10.545493 37.517654 22.19008 9.16992 10.067627 16.520533 23.294293 20.237653 38.836907l94.465707 394.86976c2.020693 8.46336 1.437013 16.735573-1.691307 24.625493-2.79552 7.051947-7.49568 13.346133-14.027093 18.711893-4.9152 4.037973-11.0336 8.29952-18.174294 11.178667-9.122133 3.674453-19.34336 5.05856-30.257493 1.641813l-223.47264-69.932373c-1.36704-0.426667-2.56512-0.617813-3.59424-0.571733-0.930133 0.042667-2.059947 0.344747-3.392853 0.90112l-153.862827 64.298666c-6.89664 2.884267-14.035627 4.391253-21.413547 4.51584-7.299413 0.126293-14.465707-1.140053-21.49888-3.79904l-153.219413-57.895253c-1.194667-0.45056-2.225493-0.699733-3.099307-0.73728-0.96256-0.042667-2.044587 0.105813-3.259733 0.443733L104.91392 922.789547c-10.704213 2.97984-20.61824 1.634987-29.428053-1.844907l0.011946-0.032427c-7.253333-2.875733-13.34784-7.012693-18.2272-11.006293-6.44608-5.277013-11.14112-11.56608-14.006613-18.69824l-0.032427 0.013653c-3.167573-7.918933-3.800747-16.182613-1.826133-24.608426l90.282667-385.18784c3.022507-12.9024 6.085973-25.68704 14.091946-38.44608 8.676693-13.824 21.794133-25.20576 43.767467-31.868587l0.47104-0.187733 135.205547-38.299307c12.77952-3.584 26.048853 3.872427 29.632853 16.651947s-3.872427 26.048853-16.651947 29.632853l-135.205546 38.299307-0.01024-0.039254c-8.762027 2.746027-13.64992 6.744747-16.570027 11.39712-3.642027 5.804373-5.763413 14.726827-7.883093 23.77216L89.1392 873.74848c1.3824 1.0496 2.76992 1.957547 3.93728 2.41664h0.093867l-0.02048 0.052907 225.0496-62.677334c6.07744-1.691307 12.071253-2.4064 18.121386-2.136746 6.137173 0.274773 12.076373 1.52576 17.964374 3.74784l153.219413 57.895253c1.43872 0.544427 2.715307 0.807253 3.8144 0.78848 1.020587-0.017067 2.266453-0.3328 3.725653-0.94208l153.862827-64.298667c6.38464-2.66752 12.94848-4.15744 19.7632-4.47488 6.719147-0.310613 13.349547 0.571733 19.961173 2.640214l221.928107 69.449386c1.22368-0.554667 2.55488-1.440427 3.838293-2.41664l-93.568-391.118506c-1.686187-7.053653-5.005653-13.038933-9.137493-17.575254-3.764907-4.13184-7.867733-6.765227-11.552427-7.51616l-121.30816-24.753493zM92.120747 876.504747l0.923306-0.257707 0.01536-0.039253c-0.38912 0.129707-1.631573 0.489813-0.938666 0.29696z m0.923306-0.257707l0.105814-0.029013 0.018773-0.0512-0.109227 0.04096-0.01536 0.039253z" p-id="7392"></path><path d="M623.218347 317.912747c8.159573-11.451733 14.58176-24.111787 18.88768-37.592747 4.13184-12.94336 6.365867-26.95168 6.365866-41.710933 0-37.76-15.305387-71.94624-40.046933-96.687787-24.741547-24.741547-58.927787-40.046933-96.687787-40.046933s-71.94624 15.305387-96.687786 40.046933c-24.741547 24.741547-40.046933 58.927787-40.046934 96.687787 0 14.759253 2.234027 28.767573 6.365867 41.710933 4.30592 13.48096 10.728107 26.141013 18.88768 37.592747 0.390827 0.520533 0.628053 0.969387 0.9728 1.5104l0.377173 0.47104 110.1312 182.49728 110.1312-182.49728 0.377174-0.47104c0.344747-0.541013 0.581973-0.989867 0.9728-1.5104z m64.605866-23.10656c-5.78048 18.0992-14.199467 34.916693-24.782506 49.978026l-124.306774 205.986134c-2.807467 4.662613-6.765227 8.43264-11.552426 11.137706-4.788907 2.701653-10.036907 4.138667-15.445334 4.138667-5.408427 0-10.656427-1.437013-15.445333-4.138667-4.7872-2.705067-8.74496-6.475093-11.552427-11.137706l-124.306773-205.986134c-10.58304-15.061333-19.002027-31.878827-24.782507-49.978026-5.722453-17.921707-8.813227-36.814507-8.813226-56.19712 0-51.05664 20.698453-97.283413 54.157653-130.742614 33.4592-33.4592 79.685973-54.157653 130.742613-54.157653s97.283413 20.698453 130.742614 54.157653c33.4592 33.4592 54.157653 79.685973 54.157653 130.742614 0 19.382613-3.090773 38.275413-8.813227 56.19712z" p-id="7393"></path><path d="M511.737173 170.072747l29.928107 17.28 29.928107 17.278293v69.116587l-29.928107 17.278293-29.928107 17.28-29.928106-17.28-29.928107-17.278293v-69.116587l29.928107-17.278293 29.928106-17.28z m0 35.585706c18.51904 0 33.53088 15.01184 33.53088 33.53088s-15.01184 33.53088-33.53088 33.53088-33.53088-15.01184-33.53088-33.53088 15.01184-33.53088 33.53088-33.53088z" p-id="7394"></path></svg>
