<?xml version="1.0" standalone="no"?><!DOCTYPE svg PUBLIC "-//W3C//DTD SVG 1.1//EN" "http://www.w3.org/Graphics/SVG/1.1/DTD/svg11.dtd"><svg t="1648905384819" class="icon" viewBox="0 0 1171 1024" version="1.1" xmlns="http://www.w3.org/2000/svg" p-id="827" xmlns:xlink="http://www.w3.org/1999/xlink" width="228.7109375" height="200"><defs><style type="text/css">@font-face { font-family: feedback-iconfont; src: url("//at.alicdn.com/t/font_1031158_u69w8yhxdu.woff2?t=1630033759944") format("woff2"), url("//at.alicdn.com/t/font_1031158_u69w8yhxdu.woff?t=1630033759944") format("woff"), url("//at.alicdn.com/t/font_1031158_u69w8yhxdu.ttf?t=1630033759944") format("truetype"); }
</style></defs><path d="M295.47846 240.494a264.63 264.63 0 0 0-180.662 74.02h-1.463A135.387 135.387 0 0 0 3.63846 348.891v0.951a91.429 91.429 0 0 0 25.6 92.526L68.00446 462.482c4.389 47.031 19.749 168.229 20.48 173.934L55.57046 954.222l-5.12 34.962v34.085h84.114l-5.851-38.108-12.435-30.94 19.749-105.618 54.126-92.525 6.583-26.259 8.045 67 40.229 157.988V1024h82.651v-2.194a136.777 136.777 0 0 0-13.897-61.294l-2.194-6.437-28.526-142.262 30.72-145.408 66.56 11.044h205.532l10.971 155.429-7.314 122.514-5.12 34.962V1024h83.383v-2.194a137.509 137.509 0 0 0-14.629-61.294l-2.194-5.705 24.868-142.263 13.166-67.365 2.926 17.555 24.868 69.778 51.932 122.295-5.12 34.377v34.085h83.383V1021a134.802 134.802 0 0 0-16.092-60.635l-3.657-6.656-31.451-189.806 16.822-91.575L922.31446 430.153l87.771-101.961 8.046 2.194 111.177-7.314a32.402 32.402 0 0 0 28.526-21.943l12.434-34.962a17.115 17.115 0 0 0-1.463-15.726 1211.465 1211.465 0 0 1-62.903-108.617 163.109 163.109 0 0 0-61.44-66.633L958.15446 0l-16.092 25.893 27.795 45.714-12.435 3.51h-1.463a113.883 113.883 0 0 0-24.868 11.85l-57.783-17.408-9.509 31.232A143.214 143.214 0 0 0 887.20446 125.44L747.50146 240.494H295.47846z" p-id="828"></path></svg>